<svg xmlns="http://www.w3.org/2000/svg" version="1.1" width="1000" height="1000">
  <style>
    #light-icon {
      display: inline;
    }
    #dark-icon {
      display: none;
    }

    @media (prefers-color-scheme: dark) {
      #light-icon {
        display: none;
      }
      #dark-icon {
        display: inline;
      }
    }
  </style>
  <g id="light-icon">
    <circle cx="500" cy="500" r="450" fill="#ffffff" stroke="#000000" stroke-width="10"/>
    <path d="M500 150 L300 350 L300 800 L450 800 L450 600 C450 550 550 550 550 600 L550 800 L700 800 L700 350 L500 150Z" fill="#0066cc" stroke="#000000" stroke-width="10"/>
    <rect x="450" y="250" width="100" height="60" fill="#0066cc" stroke="#000000" stroke-width="5"/>
  </g>
  <g id="dark-icon">
    <circle cx="500" cy="500" r="450" fill="#222222" stroke="#ffffff" stroke-width="10"/>
    <path d="M500 150 L300 350 L300 800 L450 800 L450 600 C450 550 550 550 550 600 L550 800 L700 800 L700 350 L500 150Z" fill="#4d94ff" stroke="#ffffff" stroke-width="10"/>
    <rect x="450" y="250" width="100" height="60" fill="#4d94ff" stroke="#ffffff" stroke-width="5"/>
  </g>
</svg>